# xmcd
#
# Track frame offsets:
#	150
#	14821
#	31447
#	48318
#	62496
#	79582
#	96215
#	110862
#	127956
#	143530
#	158334
#	172764
#	187332
#	201921
#	216043
#	227579
#	244761
#	257221
#	270622
#	285406
#
# Disc length: 4053 seconds
#
# Revision: 2
# Processed by: cddbd v1.5.2PL0 Copyright (c) Steve Scherf et al.
# Submitted via: audiograbber 1.83.01
#
DISCID=160fd314
DTITLE=Various Artist - Summer Jams Top 100 disc 1/5
DYEAR=1900
DGENRE=
TTITLE0=Luke Howard - Hi Life
TTITLE1=Akcent - Jokero
TTITLE2=Pachanga - Loco (Dr. Goodvibes Ft. HWL Summer Salou 2006 Mix)
TTITLE3=Squeeze Up - La Isla Bonita
TTITLE4=Masters At Work - Work
TTITLE5=Asle - Golden Sun
TTITLE6=Eddie Thoneick  and  Kurd Maverick - Love Sensation 2006
TTITLE7=Paul Cless - Suavemente
TTITLE8=Rimini Project - A Day In The Sun
TTITLE9=Energy 52 - Café Del Mar
TTITLE10=Vinylshakerz - Club Tropicana
TTITLE11=Masters Of The Scene - Voulez Vous
TTITLE12=ATB - 9 PM (Till I Come)
TTITLE13=Luc Le Blanc  vs. Mr. Z - Shake Your Bam Bam!
TTITLE14=Banji Boyz - Free Florida
TTITLE15=Negrocan - Cada Vez
TTITLE16=Carrilio - Samba De Janeiro
TTITLE17=Sabrina - Boys (Summertime Love)
TTITLE18=Raúl Orellana - Gipsy Rhythm (Dr. Kucho! Remix)
TTITLE19=Florida Inc. - I Need Your Lovin'
EXTD=
EXTT0=
EXTT1=
EXTT2=
EXTT3=
EXTT4=
EXTT5=
EXTT6=
EXTT7=
EXTT8=
EXTT9=
EXTT10=
EXTT11=
EXTT12=
EXTT13=
EXTT14=
EXTT15=
EXTT16=
EXTT17=
EXTT18=
EXTT19=
PLAYORDER=
